<svg width="20" height="20" viewBox="0 0 20 20" fill="none" xmlns="http://www.w3.org/2000/svg">
<path d="M0 6C0 2.68629 2.68629 0 6 0H14C17.3137 0 20 2.68629 20 6V14C20 17.3137 17.3137 20 14 20H6C2.68629 20 0 17.3137 0 14V6Z" fill="#4282EF"/>
<path d="M8.1429 14.4541C8.06447 14.5342 7.93553 14.5342 7.8571 14.4541L4.13701 10.6548C4.06088 10.5771 4.06088 10.4527 4.13701 10.375L5.2571 9.23105C5.33553 9.15095 5.46447 9.15095 5.5429 9.23105L7.8571 11.5945C7.93553 11.6746 8.06447 11.6746 8.1429 11.5945L14.4571 5.14594C14.5355 5.06584 14.6645 5.06584 14.7429 5.14594L15.863 6.28986C15.9391 6.36761 15.9391 6.49196 15.863 6.56971L8.1429 14.4541Z" fill="white"/>
</svg>
